<?xml version="1.0" encoding="UTF-8"?>
<svg width="1200pt" height="1200pt" version="1.1" viewBox="0 0 1200 1200" xmlns="http://www.w3.org/2000/svg">
 <path d="m900 533.34h116.67c9.1875 0 16.688-7.4531 16.688-16.688l-0.046875-83.344c0-9.1875-7.4531-16.688-16.688-16.688l-116.62 0.046875c-9.1875 0-16.688 7.4531-16.688 16.688v83.344c0 9.1875 7.5 16.641 16.688 16.641zm16.688-83.344h83.297v50.016h-83.344z" fill="#304438"/>
 <path d="m900 683.34h116.67c9.1875 0 16.688-7.4531 16.688-16.688v-83.344c0-9.1875-7.4531-16.688-16.688-16.688l-116.67 0.046875c-9.1875 0-16.688 7.4531-16.688 16.688v83.297c0 9.2344 7.5 16.688 16.688 16.688zm16.688-83.344h83.297v50.016h-83.344z" fill="#304438"/>
 <path d="m900 833.34h116.67c9.1875 0 16.688-7.4531 16.688-16.688l-0.046875-83.344c0-9.1875-7.4531-16.688-16.688-16.688l-116.62 0.046875c-9.1875 0-16.688 7.4531-16.688 16.688v83.344c0 9.1875 7.5 16.641 16.688 16.641zm16.688-83.344h83.297v50.016h-83.344z" fill="#304438"/>
 <path d="m533.34 500.02h33.328v50.016h-33.328z" fill="#304438"/>
 <path d="m533.34 350.02h33.328v50.016h-33.328z" fill="#304438"/>
 <path d="m399.98 650.02h33.328v50.016h-33.328z" fill="#304438"/>
 <path d="m533.34 650.02h33.328v50.016h-33.328z" fill="#304438"/>
 <path d="m1150 1016.7h-49.969v-650.02c0-9.1875-7.4531-16.688-16.688-16.688h-99.984v-33.328h16.688c9.1875 0 16.688-7.4531 16.688-16.688l-0.046875-199.97c0-9.1875-7.4531-16.688-16.688-16.688l-266.68 0.046875c-9.1875 0-16.688 7.4531-16.688 16.688v200.02c0 9.1875 7.4531 16.688 16.688 16.688h16.688v33.328l-83.344-0.046875v-66.656h16.688c9.1875 0 16.688-7.4531 16.688-16.688l-0.046875-66.656c0-9.1875-7.4531-16.688-16.688-16.688h-399.98c-9.1875 0-16.688 7.4531-16.688 16.688v66.656c0 9.1875 7.4531 16.688 16.688 16.688h16.688v99.984h-150c-9.1875 0-16.688 7.4531-16.688 16.688v50.016h-16.688c-9.1875 0-16.688 7.4531-16.688 16.688v549.98l-49.922-0.046875c-9.1875 0-16.688 7.4531-16.688 16.688v66.656c0 9.1875 7.4531 16.688 16.688 16.688h1100c9.1875 0 16.688-7.4531 16.688-16.688v-66.656c-0.046875-9.2344-7.5-16.688-16.734-16.688zm-199.97-699.98v33.328h-166.69v-33.328zm116.67 66.656v633.32h-399.98v-633.32zm-766.69-166.69h366.66v33.328h-366.66zm283.31 516.66h-66.656c-9.1875 0-16.688-7.4531-16.688-16.688l0.046874-83.297c0-9.1875 7.4531-16.688 16.688-16.688h66.656c9.1875 0 16.688 7.4531 16.688 16.688v83.344c-0.046874 9.1875-7.5 16.641-16.734 16.641zm16.688 50.016v83.344c0 9.1875-7.4531 16.688-16.688 16.688h-66.656c-9.1875 0-16.688-7.4531-16.688-16.688v-83.344c0-9.1875 7.4531-16.688 16.688-16.688h66.656c9.2344 0.046875 16.688 7.5 16.688 16.688zm-16.688-200.02h-66.656c-9.1875 0-16.688-7.4531-16.688-16.688v-83.344c0-9.1875 7.4531-16.688 16.688-16.688h66.656c9.1875 0 16.688 7.4531 16.688 16.688v83.391c0 9.1875-7.4531 16.641-16.688 16.641zm0-150h-66.656c-9.1875 0-16.688-7.4531-16.688-16.688l0.046874-83.297c0-9.1875 7.4531-16.688 16.688-16.688h66.656c9.1875 0 16.688 7.4531 16.688 16.688v83.344c-0.046874 9.1875-7.5 16.641-16.734 16.641zm-133.31 300h-66.656c-9.1875 0-16.688-7.4531-16.688-16.688v-83.297c0-9.1875 7.4531-16.688 16.688-16.688h66.656c9.1875 0 16.688 7.4531 16.688 16.688v83.344c0 9.1875-7.5 16.641-16.688 16.641zm16.688 50.016v83.344c0 9.1875-7.4531 16.688-16.688 16.688h-66.656c-9.1875 0-16.688-7.4531-16.688-16.688v-83.344c0-9.1875 7.4531-16.688 16.688-16.688h66.656c9.1875 0.046875 16.688 7.5 16.688 16.688zm-16.688-200.02h-66.656c-9.1875 0-16.688-7.4531-16.688-16.688v-83.344c0-9.1875 7.4531-16.688 16.688-16.688h66.656c9.1875 0 16.688 7.4531 16.688 16.688v83.391c0 9.1875-7.5 16.641-16.688 16.641zm0-150h-66.656c-9.1875 0-16.688-7.4531-16.688-16.688v-83.297c0-9.1875 7.4531-16.688 16.688-16.688h66.656c9.1875 0 16.688 7.4531 16.688 16.688v83.344c0 9.1875-7.5 16.641-16.688 16.641zm-283.31-16.641h133.31v33.328h-133.31zm-33.375 66.656h166.69v533.34h-166.69zm1e3 600h-1066.7v-33.328h1066.7z" fill="#304438"/>
 <path d="m533.34 800.02h33.328v50.016h-33.328z" fill="#304438"/>
 <path d="m399.98 800.02h33.328v50.016h-33.328z" fill="#304438"/>
 <path d="m399.98 350.02h33.328v50.016h-33.328z" fill="#304438"/>
 <path d="m399.98 500.02h33.328v50.016h-33.328z" fill="#304438"/>
 <path d="m249.98 516.66h-66.656c-9.1875 0-16.688 7.4531-16.688 16.688 0 9.1875 7.4531 16.688 16.688 16.688h66.656c9.1875 0 16.688-7.4531 16.688-16.688s-7.4531-16.688-16.688-16.688z" fill="#304438"/>
 <path d="m249.98 583.31h-66.656c-9.1875 0-16.688 7.4531-16.688 16.688 0 9.1875 7.4531 16.688 16.688 16.688h66.656c9.1875 0 16.688-7.4531 16.688-16.688 0-9.1875-7.4531-16.688-16.688-16.688z" fill="#304438"/>
 <path d="m249.98 650.02h-66.656c-9.1875 0-16.688 7.4531-16.688 16.688 0 9.1875 7.4531 16.688 16.688 16.688h66.656c9.1875 0 16.688-7.4531 16.688-16.688s-7.4531-16.688-16.688-16.688z" fill="#304438"/>
 <path d="m249.98 716.68h-66.656c-9.1875 0-16.688 7.4531-16.688 16.688 0 9.1875 7.4531 16.688 16.688 16.688h66.656c9.1875 0 16.688-7.4531 16.688-16.688s-7.4531-16.688-16.688-16.688z" fill="#304438"/>
 <path d="m249.98 783.32h-66.656c-9.1875 0-16.688 7.4531-16.688 16.688 0 9.1875 7.4531 16.688 16.688 16.688h66.656c9.1875 0 16.688-7.4531 16.688-16.688s-7.4531-16.688-16.688-16.688z" fill="#304438"/>
 <path d="m249.98 849.98h-66.656c-9.1875 0-16.688 7.4531-16.688 16.688 0 9.1875 7.4531 16.688 16.688 16.688h66.656c9.1875 0 16.688-7.4531 16.688-16.688s-7.4531-16.688-16.688-16.688z" fill="#304438"/>
 <path d="m716.68 533.34h116.67c9.1875 0 16.688-7.4531 16.688-16.688l-0.046875-83.344c0-9.1875-7.4531-16.688-16.688-16.688h-116.67c-9.1875 0-16.688 7.4531-16.688 16.688v83.344c0.046875 9.2344 7.5 16.688 16.734 16.688zm16.641-83.344h83.344v50.016h-83.344z" fill="#304438"/>
 <path d="m716.68 683.34h116.67c9.1875 0 16.688-7.4531 16.688-16.688v-83.344c0-9.1875-7.4531-16.688-16.688-16.688h-116.67c-9.1875 0-16.688 7.4531-16.688 16.688v83.344c0 9.2344 7.4531 16.688 16.688 16.688zm16.641-83.344h83.344v50.016h-83.344z" fill="#304438"/>
 <path d="m716.68 833.34h116.67c9.1875 0 16.688-7.4531 16.688-16.688l-0.046875-83.344c0-9.1875-7.4531-16.688-16.688-16.688h-116.67c-9.1875 0-16.688 7.4531-16.688 16.688v83.344c0.046875 9.2344 7.5 16.688 16.734 16.688zm16.641-83.344h83.344v50.016h-83.344z" fill="#304438"/>
 <path d="m716.68 983.34h116.67c9.1875 0 16.688-7.4531 16.688-16.688v-83.344c0-9.1875-7.4531-16.688-16.688-16.688h-116.67c-9.1875 0-16.688 7.4531-16.688 16.688v83.344c0 9.2344 7.4531 16.688 16.688 16.688zm16.641-83.344h83.344v50.016h-83.344z" fill="#304438"/>
 <path d="m900 983.34h116.67c9.1875 0 16.688-7.4531 16.688-16.688v-83.344c0-9.1875-7.4531-16.688-16.688-16.688l-116.67 0.046875c-9.1875 0-16.688 7.4531-16.688 16.688v83.297c0 9.2344 7.5 16.688 16.688 16.688zm16.688-83.344h83.297v50.016h-83.344z" fill="#304438"/>
</svg>
