<?xml version="1.0" encoding="UTF-8"?>
<svg width="1200pt" height="1200pt" version="1.1" viewBox="0 0 1200 1200" xmlns="http://www.w3.org/2000/svg">
 <path d="m1064 233.48-628.26-115.73h-96.234l-289.26 96.516v115.27h115.27v-19.266h135.52v38.016h29.016v580.26h-10.5c-20.766 0-37.734 16.734-37.734 37.5v20.25h-20.25c-20.766 0-37.5 17.016-37.5 37.734v58.266h327.52v-58.266c0-20.766-17.016-37.734-37.734-37.734h-20.25v-20.25c0-20.766-16.734-37.5-37.5-37.5h-10.734l-0.09375-580.31h29.016v-38.016h540.98v57.75h20.484l5.25 38.766h12.75v50.766c0 12.516 6.75 23.484 17.25 27.984 7.2656 3.2344 11.766 10.266 11.766 18 0 10.734-8.7656 19.5-19.5 19.5-10.734 0-19.5-8.7656-19.5-19.5 0-5.25-4.2656-9.5156-9.5156-9.5156-5.25 0.046875-9.2344 4.2656-9.2344 9.5156 0 21 17.016 38.25 38.25 38.25 21 0 38.25-17.25 38.25-38.25 0-15.234-9-29.016-23.016-35.25-3.9844-1.7344-6-6.75-6-10.734v-50.766h12.984l5.25-38.766h20.484v-57.75h38.484l0.046874-76.734zm-724.5-39h-38.484v39h-135.52v-19.219h-48.281l222.24-74.25zm9.2344 183.52 24.516 24.234-24.516 24.516zm3.9844 353.26 33.75-33.75 33.516 33.75-33.516 33.516zm67.266 93.75-33.516 33.75-33.75-33.75 33.75-33.516zm-67.266-187.74 33.75-33.75 33.516 33.75-33.516 33.75zm0-94.031 33.75-33.75 33.516 33.75-33.516 33.75zm0-93.984 33.75-33.516 33.516 33.516-33.516 33.75zm-3.9844 22.5 24.516 24.516-24.516 24.516zm0 93.984 24.516 24.516-24.516 24.516zm0 94.031 24.516 24.516-24.516 24.516zm0 93.984 24.516 24.516-24.516 24.234zm0 93.75 24.516 24.516-24.516 24.516zm77.766 81h-77.766v-5.4844l37.734-37.734 39.984 39.984zm0-29.766-26.766-26.766 26.766-26.766zm0-93.75-26.766-26.766 26.766-27zm0-93.984-26.766-26.766 26.766-26.766zm0-93.984-26.766-26.766 26.766-26.766zm0-94.031-26.766-26.766 26.766-26.766zm0-93.75-26.766-27 26.766-26.766zm0-80.25-39.984 39.984-37.734-37.5v-3.2344h77.766zm47.719-115.5v-39h-38.484v-56.25l523.5 95.25z" fill="#304438"/>
</svg>
