<?xml version="1.0" encoding="UTF-8"?>
<svg width="1200pt" height="1200pt" version="1.1" viewBox="0 0 1200 1200" xmlns="http://www.w3.org/2000/svg">
 <path d="m738.24 399.1 8.9531 21.609c1.6406 3.9844-0.28125 8.5312-4.2188 10.172-3.9844 1.6406-8.5312-0.28125-10.172-4.2188l-8.9531-21.609c-1.6406-3.9844 0.28125-8.5312 4.2188-10.172 3.9844-1.6406 8.5312 0.28125 10.172 4.2188zm-196.92-164.34 21.609 9c3.9844 1.6406 8.5312-0.23437 10.172-4.2188 1.6406-3.9844-0.23438-8.5312-4.2188-10.172l-21.609-9c-3.9844-1.6406-8.5312 0.23437-10.172 4.2188-1.6406 3.9844 0.23438 8.5312 4.2188 10.172zm102.61 143.76c25.781 10.734 53.484 9.9844 77.438 0.09375s44.109-28.922 54.844-54.703 9.9844-53.484 0.09375-77.438-28.922-44.109-54.703-54.844c-25.781-10.688-53.484-9.9375-77.391-0.09375-23.953 9.8906-44.109 28.875-54.844 54.703-10.734 25.781-9.9375 53.484-0.09375 77.438 9.8906 23.953 28.922 44.109 54.703 54.844zm-16.922 20.438-9 21.609c-1.6406 3.9844 0.23438 8.5312 4.2188 10.172s8.5312-0.23438 10.172-4.2188l9-21.609c1.6406-3.9844-0.23438-8.5312-4.2188-10.172s-8.5312 0.23438-10.172 4.2188zm175.69-154.97 21.609-8.9531c3.9844-1.6406 5.8594-6.1875 4.2188-10.172-1.6406-3.9844-6.1875-5.8594-10.172-4.2188l-21.609 8.9531c-3.9844 1.6406-5.8594 6.1875-4.2188 10.172 1.6406 3.9844 6.1875 5.8594 10.172 4.2188zm-175.4-72.938c1.6406 3.9844 6.1875 5.8594 10.172 4.2188s5.8594-6.1875 4.2188-10.172l-8.9531-21.609c-1.6406-3.9844-6.1875-5.8594-10.172-4.2188s-5.8594 6.1875-4.2188 10.172zm-80.156 178.45 21.609-8.9531c3.9844-1.6406 5.8594-6.1875 4.2188-10.172s-6.1875-5.8594-10.172-4.2188l-21.609 8.9531c-3.9844 1.6406-5.8594 6.1875-4.2188 10.172s6.1875 5.8594 10.172 4.2188zm249.52-8.6719 21.609 9c3.9844 1.6406 8.5312-0.23438 10.172-4.2188s-0.23438-8.5312-4.2188-10.172l-21.609-9c-3.9844-1.6406-8.5312 0.23438-10.172 4.2188s0.23438 8.5312 4.2188 10.172zm-68.297-165.42c3.9844 1.6406 8.5312-0.23438 10.172-4.2188l9-21.609c1.6406-3.9844-0.23438-8.5312-4.2188-10.172s-8.5312 0.23438-10.172 4.2188l-9 21.609c-1.6406 3.9844 0.23438 8.5312 4.2188 10.172zm229.97 524.9h-60.984v360.98h148.13l-69.188-360.98zm-203.72 360.98h127.18v-360.98h-65.156l-61.969 360.98zm24.328-360.98h-27.75l-139.78 360.98h127.45l61.969-360.98zm-259.97-159.89c0.23437 0 0.51562 0 0.75 0.046875l258.56 1.8281c0.23437 0 0.42187-0.046875 0.65625-0.046875 0.23437 0 0.51562 0 0.75 0.046875l18 0.14062-31.078-65.25h-242.11l-29.766 63.094 23.578 0.1875c0.1875 0 0.42188-0.046875 0.65625-0.046875zm550.97 159.89h-77.766l69.188 360.98h8.8125v-360.98zm-298.82-15.609v-126.89l-244.36-1.7344v128.63h138.47v-74.578c0-4.3125 3.5156-7.7812 7.7812-7.7812h51.891c4.3125 0 7.7812 3.5156 7.7812 7.7812v74.578zm-46.219 15.609h-54.094l-210.98 360.98h134.86l139.78-360.98zm-72.141 0-210.98 360.98h-311.9v-217.78c1.2656 2.5312 3.9375 4.3125 6.9844 4.3125h269.63c4.3125 0 7.7812-3.5156 7.7812-7.7812 0-4.3125-3.5156-7.7812-7.7812-7.7812l-269.63-0.046875c-3.0469 0-5.6719 1.7344-6.9844 4.3125v-69.188h346.92c4.3125 0 7.7812-3.5156 7.7812-7.7812 0-4.3125-3.5156-7.7812-7.7812-7.7812l-346.92-0.046875v-51.469h117.7c-1.4062-1.4062-2.25-3.3281-2.25-5.4375v-91.219c-14.016-3.5625-26.203-16.828-35.016-36.422-9.5625-21.234-15.469-50.438-15.469-82.5 0-16.125 1.5-31.547 4.2188-45.609 2.5312-13.078 6.0938-24.984 10.547-35.203-4.3594-7.7812-7.9219-16.781-10.453-26.625-2.7656-10.828-4.3125-22.781-4.3125-35.297 0-24.75 6.0938-47.344 15.891-63.844 10.547-17.672 25.453-28.594 42.281-28.594s31.734 10.922 42.281 28.594c9.8438 16.5 15.891 39.094 15.891 63.844 0 12.516-1.5469 24.422-4.3125 35.297-2.5312 9.8438-6.0469 18.844-10.453 26.625 4.4062 10.219 8.0156 22.078 10.547 35.203 2.7188 14.062 4.2188 29.484 4.2188 45.609 0 32.062-5.9062 61.219-15.469 82.5-8.8125 19.594-21 32.859-35.016 36.422v91.219c0 2.1094-0.84375 4.0312-2.25 5.4375h126.42c-1.4062-1.4062-2.25-3.3281-2.25-5.4375v-72.938c-11.344-3.375-21.188-14.25-28.312-30.094-7.8281-17.438-12.703-41.344-12.703-67.547 0-13.172 1.2188-25.781 3.4688-37.312 2.0156-10.453 4.875-19.969 8.3438-28.219-3.4688-6.2812-6.2812-13.5-8.25-21.328-2.2969-8.9062-3.5625-18.703-3.5625-29.016 0-20.344 5.0156-38.953 13.125-52.547 8.8125-14.812 21.375-23.953 35.531-23.953 14.203 0 26.719 9.1406 35.531 23.953 8.1094 13.594 13.125 32.203 13.125 52.547 0 10.266-1.2656 20.062-3.5625 29.016-2.0156 7.875-4.8281 15.047-8.25 21.328 3.5156 8.25 6.3281 17.766 8.3438 28.219 2.2031 11.484 3.4688 24.141 3.4688 37.312 0 26.25-4.875 50.109-12.703 67.547-7.125 15.797-16.922 26.672-28.312 30.094v72.938c0 2.1094-0.84375 4.0312-2.25 5.4375h176.53l-315.24 344.58c-2.9062 3.1875-2.6719 8.0625 0.46875 10.969 3.1875 2.9062 8.0625 2.6719 10.969-0.46875l324.79-355.08h59.438zm-490.92 252.56h149.81c4.3125 0 7.7812-3.5156 7.7812-7.7812 0-4.3125-3.5156-7.7812-7.7812-7.7812h-149.81c-4.3125 0-7.7812 3.5156-7.7812 7.7812 0 4.3125 3.5156 7.7812 7.7812 7.7812zm804.19-260.26v-91.219c14.016-3.5625 26.203-16.828 35.016-36.422 9.5625-21.234 15.469-50.438 15.469-82.5 0-16.125-1.5-31.547-4.2188-45.609-2.5312-13.078-6.0938-24.984-10.547-35.203 4.3594-7.7812 7.9219-16.781 10.453-26.625 2.7656-10.828 4.3125-22.781 4.3125-35.297 0-24.75-6.0938-47.344-15.891-63.844-10.547-17.672-25.453-28.594-42.281-28.594s-31.734 10.922-42.281 28.594c-9.8438 16.5-15.891 39.094-15.891 63.844 0 12.516 1.5469 24.422 4.3125 35.297 2.5312 9.8438 6.0469 18.844 10.453 26.625-4.4062 10.219-8.0156 22.078-10.547 35.203-2.7188 14.062-4.2188 29.484-4.2188 45.609 0 32.062 5.9062 61.219 15.469 82.5 8.8125 19.594 21 32.859 35.016 36.422v91.219c0 4.2188 3.4219 7.6875 7.6875 7.6875 4.2188 0 7.6875-3.4219 7.6875-7.6875z" fill="#304438" fill-rule="evenodd"/>
</svg>
