<?xml version="1.0" encoding="UTF-8"?>
<svg width="1200pt" height="1200pt" version="1.1" viewBox="0 0 1200 1200" xmlns="http://www.w3.org/2000/svg">
 <path d="m1052.3 65.297c20.766 0.046875 40.359 9.5625 53.203 25.828s17.484 37.547 12.656 57.703c-4.8281 20.203-18.609 37.031-37.453 45.75-18.797 8.7188-40.594 8.2969-59.062-1.0781l-130.18 165.24c15.141 17.766 20.016 42.094 12.984 64.312-7.0312 22.266-25.031 39.328-47.625 45.141-22.594 5.8594-46.594-0.375-63.516-16.406-16.969-16.078-24.422-39.703-19.828-62.578l-89.859-37.781v0.046875c-2.4375 3.5156-5.1562 6.8438-8.2031 9.8906-21.094 21.094-53.531 25.875-79.875 11.859l-127.97 155.63c15.891 19.406 19.734 45.984 10.031 69.094-9.7031 23.109-31.359 39-56.297 41.25-24.984 2.2969-49.172-9.375-62.859-30.375-13.734-20.953-14.766-47.812-2.6719-69.75l-110.48-93.094c-23.203 18.516-55.688 19.922-80.391 3.4688l-110.58 110.58c-2.4844 2.625-5.9062 4.125-9.5156 4.1719-3.5625 0.046876-7.0312-1.3594-9.5625-3.9375-2.5781-2.5312-3.9844-6-3.9375-9.5625 0.046874-3.6094 1.5469-7.0312 4.1719-9.5156l110.58-110.58c-13.641-20.484-15.188-46.734-4.0312-68.672s33.234-36.141 57.844-37.172c24.609-1.0312 47.812 11.25 60.797 32.203 12.938 20.906 13.594 47.203 1.7344 68.766l110.48 93.094-0.046874-0.046874c21.188-16.875 50.344-19.547 74.25-6.7969l127.97-155.68c-14.672-18-19.125-42.234-11.766-64.266 7.3594-22.031 25.453-38.766 47.953-44.344 22.547-5.5781 46.359 0.79688 63.141 16.828 16.781 16.078 24.141 39.562 19.547 62.344l89.859 37.781v-0.046875c12.656-18.562 33.656-29.719 56.109-29.719 10.688 0 21.188 2.4844 30.703 7.3125l130.13-165.19h-0.046875c-17.156-20.109-21.047-48.328-9.9375-72.328 11.062-24 35.109-39.375 61.547-39.375zm-792 536.72-115.03 0.046875v460.97h115.08v-460.97zm212.39 179.02h-115.08v282h115.08zm212.39-258.37h-115.12v540.37h115.08zm212.39 89.25h-115.12v451.13h115.08zm212.39-269.58h-115.08v720.71h115.08zm-1009.9 792.37c-3.6094 0.09375-7.0781-1.2656-9.6562-3.7969-2.625-2.4844-4.0781-5.9531-4.0781-9.5625s1.4531-7.0312 4.0781-9.5625c2.5781-2.4844 6.0469-3.8438 9.6562-3.75h1055.2c3.6094-0.09375 7.0781 1.2656 9.7031 3.75 2.5781 2.5312 4.0312 5.9531 4.0312 9.5625s-1.4531 7.0781-4.0312 9.5625c-2.625 2.5312-6.0938 3.8906-9.7031 3.7969z" fill="#304438" fill-rule="evenodd"/>
</svg>
