<?xml version="1.0" encoding="UTF-8"?>
<svg width="1200pt" height="1200pt" version="1.1" viewBox="0 0 1200 1200" xmlns="http://www.w3.org/2000/svg">
 <path d="m925.55 1115.1c-10.875-20.203-26.672-37.266-45.938-49.688-27.984-20.531-61.359-32.297-96-33.844h-320.39c-34.641 1.5469-68.062 13.312-96 33.844-19.312 12.422-35.156 29.484-46.078 49.688zm-159.1-328.22h264c2.8125-0.046875 5.0625-2.3438 5.1562-5.1562v-44.391c-0.09375-2.8594-2.3438-5.1094-5.1562-5.1562h-276c5.2969 17.906 9.2812 36.188 12 54.703zm-274.45-54.844h-275.29c-2.8594 0-5.2031 2.2969-5.25 5.1562v44.391c0.046875 2.8594 2.3906 5.1562 5.25 5.1562h263.29c2.7656-18.469 6.75-36.75 12-54.703zm15.703 71.062 7.0781-39.844c4.0781-25.5 15.609-49.172 33.141-68.062 14.625-15.328 34.922-24 56.156-24h38.625c51.844 0 81 46.078 89.156 91.547l42.844 238.22h-302.63l35.156-195.71c0.09375-0.89062 0.09375-1.7812 0-2.6719zm-99.703-171.98c16.266-5.8594 31.5-14.297 45.141-24.938h-325.82c13.641 10.688 28.922 19.078 45.234 24.938 37.828 13.547 77.766 20.25 117.98 19.781 40.031 0.42188 79.781-6.2812 117.47-19.781zm-73.547 48c-29.531 3.1406-59.297 3.1406-88.828 0v24h88.781v-24zm739.31-48c16.266-5.8594 31.5-14.297 45.094-24.938h-325.78c13.641 10.688 28.922 19.078 45.234 24.938 76.453 26.391 159.52 26.391 235.92 0zm-73.547 48c-29.578 3.1406-59.391 3.1406-88.922 0v24h88.922zm-360 64.219c-6.8438-7.0312-17.203-9.1875-26.25-5.5312-9.0469 3.7031-14.953 12.469-14.953 22.266 0 9.75 5.9062 18.562 14.953 22.219 9.0469 3.7031 19.406 1.5 26.25-5.4844 9.0469-9.3281 9.0469-24.188 0-33.469zm-16.219-37.453c-17.906 0-34.641 8.9531-44.625 23.812-9.9375 14.906-11.812 33.797-4.9688 50.344 6.8906 16.547 21.562 28.594 39.094 32.109 17.578 3.4688 35.766-2.0156 48.422-14.719 15.328-15.328 19.922-38.391 11.625-58.453-8.2969-20.016-27.844-33.094-49.547-33.094zm317.29-381.84c0.375-8.2969 7.4062-14.672 15.703-14.297 8.2969 0.42188 14.672 7.4531 14.297 15.75 18.516 6.375 30.984 23.812 30.938 43.406 0 8.2969-6.7031 15-15 15s-15-6.7031-15-15c0-6.4219-3.8906-12.234-9.8438-14.719s-12.844-1.125-17.391 3.4688c-4.5469 4.5469-5.9531 11.438-3.4688 17.391s8.2969 9.8438 14.766 9.8438c22.406 0 41.578 16.219 45.281 38.344 3.75 22.125-9.0938 43.734-30.281 51.047 0.42188 8.2969-5.9531 15.375-14.25 15.797-8.25 0.42188-15.328-5.9531-15.75-14.25v-1.5469c-18.562-6.375-31.031-23.812-30.984-43.453-0.375-4.1719 1.0312-8.3438 3.8906-11.438 2.8125-3.0938 6.8438-4.875 11.062-4.875s8.2031 1.7812 11.062 4.875 4.2656 7.2656 3.8906 11.438c0 6.4688 3.8438 12.281 9.7969 14.766s12.797 1.125 17.391-3.4219 5.9531-11.391 3.5156-17.344-8.2031-9.8906-14.625-9.9375c-18.328-0.375-34.641-11.531-41.672-28.453-6.9844-16.922-3.3281-36.375 9.375-49.547 4.9219-4.9688 10.922-8.6719 17.531-10.922v-1.9219zm92.859-139.55h-156c-4.6875-0.14062-9 2.6719-10.734 7.0781-1.6875 4.3594-0.46875 9.375 3.0469 12.469 2.0625 2.0625 4.875 3.2344 7.8281 3.2344h156c3.1406 0.32812 6.2812-0.70312 8.625-2.8125s3.6562-5.1094 3.6562-8.2969c0-3.1406-1.3125-6.1406-3.6562-8.2969-2.3438-2.1094-5.4844-3.0938-8.625-2.7656zm4.2188 51.938h-164.29c-48 68.062-105.7 173.63-88.688 252 5.0625 24.984 19.453 47.109 40.219 61.922 16.312 11.906 34.688 20.625 54.234 25.688h152.76c19.5-4.8281 37.922-13.219 54.328-24.844 48-35.156 49.688-92.766 35.156-148.22h0.046875c-18.141-59.859-46.547-116.06-84-166.18zm-139.82-81.469h117.84c12-16.781 29.062-36 27.469-55.453 0-7.0781-2.2969-9.1406-5.2969-8.8594-14.391 0.84375-27.938 12-55.312 5.2969l0.046874-0.046875c-9.0469-2.25-17.625-5.9062-25.453-10.922-1.2188-0.70312-26.531 21.938-53.297 13.453-14.062-4.4531-31.688-6.7031-35.156 1.9219-1.0312 3.6094-1.0312 7.4531 0 11.062 4.9688 17.25 15.281 32.484 29.391 43.547zm-766.55 214.45 158.53 159.24 165.47-165.61c31.453-31.312 55.688-55.547 55.688-104.3 0.375-50.109-31.219-94.922-78.562-111.42-47.344-16.453-99.891-0.9375-130.74 38.578-2.8594 3.75-7.2656 5.9531-12 5.9531-4.6875 0-9.1406-2.2031-12-5.9531-30.844-38.953-82.969-54.188-129.94-37.969-47.016 16.172-78.656 60.281-78.984 109.97 0 52.219 28.453 77.062 62.062 110.62zm9.8438-48.703v-0.046875c-4.2188 0.375-8.3438-1.0312-11.484-3.8438-3.0938-2.8594-4.875-6.8906-4.875-11.062 0-4.2188 1.7812-8.25 4.875-11.109 3.1406-2.8125 7.2656-4.2188 11.484-3.8438h38.156l24.703-24c3.4688-3.375 8.3438-4.875 13.125-4.0312 4.7812 0.89062 8.8125 3.9844 10.875 8.3438l28.312 57.938 57.375-117.47c2.5312-5.1094 7.7344-8.3438 13.453-8.3438s10.922 3.2344 13.453 8.3438l38.391 78.703h60v0.046875c4.1719-0.375 8.3438 1.0312 11.438 3.8438 3.1406 2.8594 4.875 6.8906 4.875 11.062 0 4.2188-1.7344 8.25-4.875 11.109-3.0938 2.8125-7.2656 4.2188-11.438 3.8438h-69.609c-5.7188 0.046875-10.969-3.2344-13.453-8.3906l-29.062-60-57.375 117.47h0.046874c-2.5312 5.1094-7.7344 8.3438-13.453 8.3438-5.6719 0-10.875-3.2344-13.406-8.3438l-32.859-67.219-13.453 12.844c-2.8594 3.0938-6.8906 4.8281-11.062 4.8281z" fill="#304438" fill-rule="evenodd"/>
</svg>
