<?xml version="1.0" encoding="UTF-8"?>
<svg width="1200pt" height="1200pt" version="1.1" viewBox="0 0 1200 1200" xmlns="http://www.w3.org/2000/svg">
 <path d="m304.98 851.47 119.57 188.93 16.703-9.7422h0.003906c2.5391-1.5977 5.5625-2.2383 8.5312-1.8125l220.36 31.824c22.152 3.5547 44.832-1.3984 63.492-13.859l0.58984-0.35938 293.76-169.52c0.20703-0.14844 0.42188-0.28125 0.64844-0.39844 8.3164-4.7461 14.418-12.586 16.977-21.816 2.5586-9.2266 1.3633-19.094-3.3203-27.441-4.6016-8.1406-12.266-14.102-21.289-16.551-9.5273-2.5742-19.672-1.4492-28.402 3.1445l-178.99 92.773c0.78906 8.1953-0.082031 16.469-2.5586 24.324-0.32422 1.3633-0.875 2.6641-1.6172 3.8516-7.0352 14.062-18.316 25.555-32.246 32.844-13.734 7.0156-29.727 8.1562-44.316 3.1562l-177.35-59.375c-6.2773-2.4688-9.5234-9.4219-7.3828-15.82 2.1445-6.3984 8.9258-9.9961 15.422-8.1797l177.3 59.363c8.2266 2.7852 17.227 2.1133 24.949-1.8594 9.1016-4.8555 16.457-12.434 21.035-21.672 2.7461-9.0234 1.8828-18.762-2.4141-27.156-4.2969-8.3984-11.688-14.797-20.613-17.844l-242.71-81.312c-19.336-6.8242-40.438-6.7188-59.703 0.30078zm-151.92 16.199 94.383-59.711 162 256.02c0.14453 0.25391 0.30078 0.49219 0.45703 0.73047l9.8516 15.602-94.371 59.688zm682.14-237.67c51.672-0.55859 102.2-15.273 146.1-42.539v-318.45c-44.641 25.066-94.906 38.406-146.1 38.773-60.895-1.2539-120.4-18.418-172.61-49.789-106.8-60.449-208.85-61.742-306.16-3.8867v318.38c101.73-55.281 207.96-51.602 318.67 11.039 48.398 29.18 103.59 45.199 160.09 46.465zm116.76-247.77v131.37c-0.007813 7.0195-5.6992 12.711-12.723 12.719-3.7852-0.058593-7.5156 0.90625-10.797 2.7969-3.6445 2.2422-6.6836 5.3398-8.8555 9.0234-2.5625 4.0508-4.1992 8.6133-4.8008 13.367-0.54688 4.6641-0.14062 9.3945 1.1992 13.895l0.21484 0.63672c1.0156 3.2148 0.71484 6.6992-0.84375 9.6875-1.5547 2.9883-4.2344 5.2383-7.4492 6.25-35.754 11.406-73.68 14.281-110.75 8.3984-38.852-6.6445-76.176-20.293-110.15-40.281-39.246-22.863-82.039-39-126.61-47.738-40.742-7.6289-82.594-7.0703-123.12 1.6445-6.8555 1.4492-13.586-2.9258-15.039-9.7812-1.2148-6.3281-4.418-12.102-9.1406-16.488-4-3.6602-9.2188-5.6992-14.641-5.7227-7.0195-0.007812-12.707-5.6992-12.707-12.719v-131.32c0-7.0195 5.6875-12.715 12.707-12.719 3.7852 0.054688 7.5156-0.91016 10.801-2.7969 3.6328-2.2461 6.668-5.3359 8.8438-9.0117 2.5625-4.0547 4.2031-8.6211 4.7969-13.383 0.54688-4.6641 0.14062-9.3906-1.1992-13.895l-0.21484-0.63672c-2.1094-6.6875 1.6016-13.82 8.293-15.934 35.754-11.41 73.68-14.285 110.75-8.4023 38.855 6.6406 76.184 20.289 110.16 40.273 39.266 22.855 82.082 38.973 126.67 47.688 40.723 7.625 82.555 7.0703 123.06-1.6328 6.8555-1.4492 13.59 2.9258 15.047 9.7812 1.2148 6.3281 4.4141 12.105 9.1328 16.5 4.0039 3.6484 9.2188 5.6836 14.637 5.7109 7.0234 0.007813 12.715 5.6992 12.723 12.719zm-25.43 120.34c-3.8008 1.0742-7.4531 2.6328-10.859 4.6328-7.1953 4.3047-13.234 10.297-17.594 17.461-6.7969 10.766-9.832 23.48-8.6367 36.156-28.836 7.5938-58.93 9.1133-88.383 4.4531-35.793-6.1914-70.168-18.82-101.46-37.273-41.738-24.254-87.246-41.336-134.63-50.543-40.215-7.5352-81.465-7.6953-121.74-0.48047-3.0625-6.9336-7.5625-13.137-13.199-18.203-5.3945-4.8633-11.832-8.4297-18.816-10.43v-109.39c3.7852-1.082 7.4141-2.6406 10.801-4.6445 7.207-4.3125 13.254-10.324 17.605-17.508 4.5273-7.1875 7.418-15.281 8.457-23.711 0.51953-4.1289 0.57812-8.3047 0.18359-12.445 28.832-7.5977 58.93-9.1133 88.379-4.4531 35.816 6.1914 70.215 18.828 101.52 37.297 41.738 24.27 87.246 41.371 134.64 50.59 40.215 7.5352 81.465 7.6953 121.74 0.48047 3.0703 6.9297 7.5664 13.133 13.199 18.207 5.3984 4.8594 11.836 8.4258 18.816 10.426v109.38zm-244.93-21.586c-0.21094 6.8711-5.8438 12.328-12.715 12.328-6.875 0-12.504-5.457-12.715-12.328v-2.3984c-2.0195-0.51563-4.0039-1.1562-5.9414-1.9219-8.8281-3.3711-16.129-9.8398-20.531-18.203-2.9414-6.2266-0.375-13.66 5.7852-16.738s13.648-0.66797 16.859 5.4219c1.6484 2.8125 4.25 4.9375 7.332 6 4.8984 1.832 10.266 1.9766 15.254 0.40625 3.0898-0.90625 5.8047-2.8008 7.7266-5.3867 1.1289-1.5469 1.5625-3.4961 1.1992-5.375-0.085938-0.42187-0.14453-0.66016-0.16797-0.73047-2.0508-6.1797-9.5273-7.4531-16.992-8.7227-14.93-2.543-29.855-5.0898-36.742-25.789v-0.003906c-0.38281-1.1172-0.70312-2.2539-0.96094-3.4062-1.8555-8.6797 0-17.742 5.1133-24.996 5.0898-7.1602 12.371-12.469 20.746-15.121l1.2734-0.40625v-3.0117c0.21094-6.8711 5.8398-12.332 12.715-12.332 6.8711 0 12.5 5.4609 12.711 12.332v2.3984c2.043 0.49609 4.0508 1.1406 6 1.9219 8.793 3.3594 16.062 9.8047 20.449 18.129 3.0742 6.2461 0.52734 13.801-5.6953 16.914-6.2227 3.1133-13.793 0.61719-16.949-5.5859-1.6445-2.8086-4.2422-4.9375-7.3203-6-4.8984-1.832-10.273-1.9766-15.262-0.40625-3.0938 0.91016-5.8086 2.8008-7.7305 5.3867-1.1367 1.5625-1.5703 3.5273-1.1992 5.4258 0.085938 0.42188 0.14453 0.66016 0.16797 0.73047 2.0508 6.1562 9.5156 7.4297 16.969 8.6992 14.941 2.543 29.879 5.0898 36.77 25.812h-0.003906c0.37891 1.1016 0.69922 2.2266 0.96094 3.3594 1.8672 8.6953 0.015625 17.777-5.1094 25.047-5.0977 7.1836-12.398 12.508-20.797 15.168l-1.2734 0.40625v3.0117zm-134.4-120.64c6.8828 1.2344 11.465 7.8125 10.23 14.695-1.2305 6.8828-7.8125 11.461-14.695 10.23-9.7617-1.7773-19.633-2.9102-29.543-3.3984-9.8125-0.48828-19.648-0.29297-29.434 0.57812-3.4297 0.45312-6.8906-0.51562-9.5859-2.6797-2.6953-2.1641-4.3867-5.3359-4.6875-8.7773-0.29688-3.4453 0.82422-6.8594 3.1055-9.457 2.2852-2.5938 5.5273-4.1445 8.9805-4.2852 10.914-0.97656 21.879-1.207 32.82-0.6875 11.008 0.55469 21.969 1.8242 32.809 3.8047zm306.17 91.621c6.9961-0.38281 12.977 4.9805 13.355 11.977 0.38281 6.9922-4.9805 12.973-11.977 13.355-10.633 0.625-21.359 0.72656-32.184 0.3125-10.824-0.41406-21.625-1.3438-32.398-2.7852-6.8438-1.0078-11.617-7.3164-10.723-14.176 0.89453-6.8594 7.125-11.734 14-10.953 10.055 1.3281 20.086 2.1875 30.086 2.5781s19.969 0.28906 29.902-0.3125zm-41.34 252.62c2.6406-2.1445 6.0312-3.1367 9.4102-2.7578 3.3789 0.375 6.4648 2.0938 8.5703 4.7656 2.1016 2.6719 3.043 6.0781 2.6133 9.4531-0.42969 3.3711-2.1914 6.4336-4.8984 8.4922-22.812 18.125-48.406 32.441-75.789 42.398-26.574 9.6133-54.613 14.539-82.875 14.566-49.617-0.23047-98.059-15.156-139.2-42.898-37.285-25.137-68.855-57.848-92.652-96l-14.258 33.492h0.003906c-2.7461 6.4414-10.191 9.4375-16.633 6.6953-6.4414-2.7461-9.4414-10.191-6.6953-16.633l23.785-55.871h-0.003906c0.22266-0.64062 0.49609-1.2656 0.81641-1.8594 2.6758-5.2891 8.6523-8.0234 14.402-6.5898l71.652 18c3.3477 0.73828 6.2578 2.7969 8.0625 5.7148 1.8047 2.9141 2.3555 6.4375 1.5234 9.7656-0.83203 3.3242-2.9727 6.1758-5.9414 7.8984-2.9648 1.7227-6.5 2.1719-9.8008 1.2461l-42.324-10.609c21.438 33.113 49.352 61.551 82.066 83.594 36.996 24.961 80.555 38.402 125.18 38.629 25.344 0.007812 50.492-4.3828 74.328-12.984 24.809-9.0547 47.984-22.059 68.641-38.508zm-285.95-567.67c-2.6328 2.1953-6.043 3.2305-9.457 2.8711-3.4102-0.35938-6.5312-2.0859-8.6484-4.7812-2.1211-2.6992-3.0586-6.1367-2.6016-9.5352 0.45703-3.4023 2.2695-6.4727 5.0234-8.5117 22.816-18.117 48.406-32.434 75.781-42.398 26.578-9.6133 54.621-14.539 82.883-14.566 49.492 0.24219 97.809 15.109 138.88 42.73 37.223 25.027 68.766 57.605 92.578 95.617l12.781-30c2.7422-6.4414 10.188-9.4375 16.633-6.6953 6.4414 2.7422 9.4375 10.191 6.6953 16.633l-24.254 56.914c-2.4375 5.7461-8.6914 8.8633-14.746 7.3438l-71.652-18c-6.8047-1.6992-10.941-8.5938-9.2422-15.395 1.7031-6.8047 8.5938-10.941 15.398-9.2422l46.906 11.762c-21.863-34.922-50.82-64.859-84.996-87.875-36.965-24.84-80.445-38.199-124.98-38.402-25.344-0.003906-50.5 4.3984-74.34 13.008-24.805 9.0625-47.98 22.07-68.641 38.523z" fill="#304438" fill-rule="evenodd"/>
</svg>
